<?xml version="1.0" encoding="utf-8"?>
<!-- Generator: Adobe Illustrator 25.2.0, SVG Export Plug-In . SVG Version: 6.00 Build 0)  -->
<svg version="1.1" id="Layer_1" xmlns="http://www.w3.org/2000/svg" xmlns:xlink="http://www.w3.org/1999/xlink" x="0px" y="0px"
	 viewBox="0 0 512 512" style="enable-background:new 0 0 512 512;" xml:space="preserve">
<style type="text/css">
	.st0{fill:#DFE6FD;stroke:#F5F7FE;stroke-width:9.1376;stroke-miterlimit:10;}
	.st1{fill:#2A69E6;}
	.st2{fill:#4CB152;}
	.st3{fill:#DFE6FD;}
	.st4{fill:#967AED;}
	.st5{fill:#FFFFFF;}
</style>
<g>
	<g>
		<g id="shape_2_">
			<path class="st0" d="M359.4,441.4H152.6c-45.3,0-82-36.7-82-82V152.6c0-45.3,36.7-82,82-82h206.8c45.3,0,82,36.7,82,82v206.8
				C441.4,404.7,404.7,441.4,359.4,441.4z"/>
			<g>
				<g>
					<path class="st1" d="M303.4,295.7h-39.3c-7.2,0-13.1-5.9-13.1-13.1v-4c0-7.2,5.9-13.1,13.1-13.1h39.3c7.2,0,13.1,5.9,13.1,13.1
						v4C316.5,289.8,310.6,295.7,303.4,295.7z"/>
					<path class="st1" d="M303.4,342.7h-39.3c-7.2,0-13.1-5.9-13.1-13.1v-4c0-7.2,5.9-13.1,13.1-13.1h39.3c7.2,0,13.1,5.9,13.1,13.1
						v4C316.5,336.8,310.6,342.7,303.4,342.7z"/>
					<path class="st1" d="M378.4,390.7h-39.3c-7.2,0-13.1-5.9-13.1-13.1v-4c0-7.2,5.9-13.1,13.1-13.1h39.3c7.2,0,13.1,5.9,13.1,13.1
						v4C391.5,384.8,385.6,390.7,378.4,390.7z"/>
					<path class="st1" d="M303.4,390.7h-39.3c-7.2,0-13.1-5.9-13.1-13.1v-4c0-7.2,5.9-13.1,13.1-13.1h39.3c7.2,0,13.1,5.9,13.1,13.1
						v4C316.5,384.8,310.6,390.7,303.4,390.7z"/>
				</g>
				<g id="vZczqv_1_">
					<g>
						<g>
							<path class="st2" d="M205.6,348.1l3.4-2.2c5.7-3.8,9.2-8.8,9.9-14.4c0.7-5.2-1-10.6-4.5-14.6s-8.5-6.3-13.9-6.3
								c-4.9,0-9.5,1.9-13,5.3c-3.9,3.9-5.8,8.1-5.6,12.6c0.2,5.9,3.9,12.1,10.7,18l2.7,2.3L173,407l-4.6-1.7
								c-14.3-5.3-27.8-16.3-37-30.2c-10.7-16-15.3-34.7-13.3-54c4.1-40.9,36.6-72.3,77.1-74.6c1.7-0.1,3.4-0.1,5-0.1
								c19.2,0,37.9,6.4,52.6,18.1s25,28.3,28.9,46.6c9.6,44.8-17.2,81.4-48.5,94.4l-4.7,2L205.6,348.1z"/>
							<path class="st3" d="M200.2,251.3c37.4,0,69.1,25.2,76.6,60.8c8.6,40.5-14.4,75.8-45.6,88.7c-6.5-16.8-13-33.6-19.5-50.6
								c15.7-10.3,14.8-27,6.5-36.5c-4.6-5.3-11.1-8-17.6-8c-6,0-11.9,2.2-16.5,6.8c-11.1,11-9.1,25.4,5.3,37.9
								c-6.4,16.7-12.9,33.5-19.3,50.2c-25.5-9.4-51.1-39.7-47.1-79c3.9-39.2,35.1-68,72.5-70.1C197,251.3,198.6,251.3,200.2,251.3
								 M200.2,241.3c-1.8,0-3.5,0.1-5.3,0.2c-43.1,2.4-77.5,35.7-81.8,79.1c-2.1,20.5,2.8,40.3,14.1,57.3
								c9.8,14.8,24.2,26.5,39.5,32.1l9.3,3.4l3.5-9.2l10.7-27.8l8.6-22.4l1.9-4.9l1.8,4.6l10.4,27l9.1,23.6l3.7,9.6l9.5-3.9
								c17.9-7.4,33-21,42.6-38.4c10.4-18.8,13.5-40.1,8.9-61.6c-4.2-19.5-15.1-37-30.7-49.5C240.3,248.1,220.5,241.3,200.2,241.3
								L200.2,241.3z M199.8,346l-3.8-3.3c-5.6-4.9-8.8-10-9-14.4c-0.1-3.1,1.3-6,4.2-8.9c2.5-2.5,5.9-3.9,9.4-3.9
								c3.9,0,7.6,1.7,10.1,4.6c2.6,2.9,3.8,6.9,3.3,10.6c-0.6,4.2-3.2,7.9-7.7,10.9L199.8,346L199.8,346z"/>
						</g>
					</g>
				</g>
			</g>
		</g>
	</g>
	<path class="st1" d="M366.9,301.2c0-19.7,0.1-10.4,0.1-35.7c19.7,0,35.7,16,35.7,35.7"/>
	<path class="st1" d="M361.7,306.4c0-19.7,0.1-10.4,0.1-35.7c-20.6,0-37.1,17.4-35.6,38.3c1.2,17.6,15.5,31.9,33.1,33.1
		c20.9,1.4,38.3-15.1,38.3-35.6L361.7,306.4z"/>
	<g>
		<g>
			<path class="st1" d="M230.3,229c-8-2.1-11.5-4-11.5-4c-4.3-2.4-6.2-8-4.2-12.5l2.4-5.3c2-4.5,7.2-6.3,11.5-3.9
				c0,0,2.2,1.2,8.4,3.1c6.2,1.9,12.2,2.8,18.2,2.8c11.3,0,17-2.8,17-8.5c0-3-1.6-5.2-4.8-6.6c-3.2-1.4-8.4-3-15.6-4.5
				c-7.9-1.7-14.4-3.5-19.7-5.4s-9.8-5-13.6-9.3s-5.7-10-5.7-17.3c0-6.4,1.7-12.1,5.2-17.2c3.5-5.1,8.7-9.2,15.6-12.1
				c6.9-3,15.4-4.5,25.4-4.5c6.9,0,13.6,0.8,20.3,2.3c6.7,1.5,9.5,2.9,9.5,2.9c4.5,2.1,6.6,7.6,4.7,12.2l-2.2,5.3
				c-1.9,4.6-7.2,6.8-11.8,4.9c0,0-11.3-4.6-20.6-4.6c-5.9,0-10.1,0.9-12.8,2.6c-2.7,1.7-4,4-4,6.8s1.6,4.9,4.8,6.3
				c3.2,1.4,8.3,2.8,15.4,4.3c7.9,1.7,14.5,3.5,19.7,5.4s9.7,5,13.6,9.2c3.8,4.2,5.7,10,5.7,17.2c0,6.3-1.7,11.9-5.2,17
				s-8.7,9.1-15.6,12.1c-7,3-15.4,4.5-25.3,4.5C246.4,232.1,238.2,231.1,230.3,229z"/>
		</g>
	</g>
</g>
<g id="net">
	<circle class="st4" cx="398.9" cy="113.1" r="57.1"/>
	<g>
		<path class="st5" d="M359.3,125c-0.6-0.6-0.9-1.4-0.9-2.3s0.3-1.7,0.9-2.3c0.6-0.6,1.3-0.9,2.2-0.9c0.9,0,1.6,0.3,2.2,0.9
			s0.9,1.3,0.9,2.3c0,0.9-0.3,1.7-0.9,2.3c-0.6,0.6-1.3,0.9-2.2,0.9C360.7,125.9,360,125.6,359.3,125z"/>
		<path class="st5" d="M393.4,99v26.6h-4.1l-14.7-18v18h-4.9V99h4.1l14.7,18V99H393.4z"/>
		<path class="st5" d="M420.6,121.5v4.1h-20V99H420v4.1h-14.5v6.9h12.9v4.1h-12.9v7.3L420.6,121.5L420.6,121.5z"/>
		<path class="st5" d="M431.5,103.2h-8.8V99h22.6v4.2h-8.8v22.4h-4.9v-22.4H431.5z"/>
	</g>
</g>
</svg>
